<svg width="34" height="32" viewBox="0 0 34 32" fill="none" xmlns="http://www.w3.org/2000/svg">
<path d="M33.9999 9.62503C33.9999 8.44847 33.0485 7.49454 31.875 7.49454H28.2476C29.1863 6.56618 29.7872 5.34917 29.7872 3.85033C29.7872 2.00479 28.73 0 25.7624 0C21.8578 0 18.5959 4.16831 17.0632 6.50493C15.5295 4.16884 12.1678 0.000532585 8.26359 0.000532585C5.29603 0.000532585 4.23884 2.00533 4.23884 3.85087C4.23884 5.34913 4.85616 6.56671 5.814 7.49507H2.125C0.951469 7.49507 0 8.449 0 9.62557V16.0027H2.14359V29.8695C2.14359 31.0461 3.09503 32 4.26859 32H29.758C30.9315 32 31.883 31.0461 31.883 29.8695V16.0021H34V9.62503H33.9999ZM25.7624 2.13103C27.0762 2.13103 27.6622 2.68445 27.6622 3.8509C27.6622 6.21734 25.0277 7.49401 22.55 7.49401H18.9529C20.4627 5.24581 23.12 2.13103 25.7624 2.13103ZM8.26356 2.13106C10.9065 2.13106 13.6642 5.24584 15.174 7.49351H11.5759C9.09812 7.49351 6.36378 6.18379 6.36378 3.81734C6.36378 2.65143 6.94975 2.13106 8.26356 2.13106ZM31.875 13.8716H18.0625V9.62503H31.875V13.8716ZM2.12497 9.62503H15.9375V13.8716H2.12497V9.62503ZM4.26856 16.0021H15.9375V29.869H4.26856V16.0021ZM29.7585 29.869H18.0625V16.0021H29.7585V29.869Z" fill="url(#paint0_linear_236_15751)"/>
<defs>
<linearGradient id="paint0_linear_236_15751" x1="13.2339" y1="7.44139e-07" x2="39.1932" y2="22.4092" gradientUnits="userSpaceOnUse">
<stop stop-color="#FD312E"/>
<stop offset="0.55" stop-color="#F914EB"/>
<stop offset="0.78" stop-color="#B432F5"/>
<stop offset="1" stop-color="#8227FF"/>
</linearGradient>
</defs>
</svg>
