<svg preserveAspectRatio="none" overflow="visible" style="display: block;" width="300" height="47.8125" viewBox="0 0 300 47.8125" fill="none" xmlns="http://www.w3.org/2000/svg">
<g id="Life&#39;s Good" clip-path="url(#clip0_0_74)">
<path id="Vector" fill-rule="evenodd" clip-rule="evenodd" d="M297.357 46.7125C296.378 47.369 295.227 47.7227 294.05 47.7227C292.464 47.7227 290.943 47.0911 289.817 45.9699C288.696 44.8486 288.065 43.3281 288.065 41.7422C288.065 40.565 288.419 39.4137 289.075 38.4336C289.732 37.4534 290.666 36.6911 291.756 36.242C292.847 35.7929 294.044 35.6767 295.201 35.9039C296.357 36.1362 297.418 36.7015 298.251 37.5354C299.085 38.3682 299.656 39.4293 299.883 40.5858C300.115 41.7422 299.999 42.9392 299.55 44.0303C299.1 45.1214 298.337 46.0508 297.357 46.7073V46.7125ZM267.853 16.6369C264.863 16.6369 262.726 20.3594 262.726 29.5707H262.716C262.716 39.2478 265.414 42.8489 269.166 42.8489C270.045 42.8686 270.913 42.712 271.731 42.3895V18.591C270.388 17.338 269.196 16.6369 267.853 16.6369ZM283.964 44.551L271.964 47.7227V47.7123C271.939 47.7227 271.909 47.7279 271.883 47.7227C271.858 47.7227 271.833 47.7072 271.812 47.6926C271.792 47.6771 271.772 47.6574 271.762 47.6325C271.757 47.6221 271.752 47.6076 271.752 47.5972V44.1122C269.1 46.5517 267.176 47.7134 264.06 47.7134C255.999 47.7134 252.005 41.9756 252.005 32.6128C252.005 22.0521 258.08 14.6133 267.635 14.6133C269.015 14.6237 270.393 14.7347 271.757 14.9462V9.45636C271.757 6.2037 270.56 5.08768 269.812 4.39068C269.474 4.07226 269.226 3.84512 269.226 3.53707C269.226 3.20413 269.469 3.0164 269.868 2.92616L281.857 -0.247664C281.857 -0.247664 281.908 -0.263222 281.933 -0.258036C281.959 -0.258036 281.984 -0.247664 282.005 -0.233143C282.024 -0.217585 282.044 -0.197878 282.054 -0.172986C282.065 -0.148093 282.07 -0.122163 282.07 -0.0972703V38.0187C282.07 41.2714 283.267 42.3874 284.015 43.0844C284.353 43.4028 284.6 43.6299 284.6 43.938C284.6 44.2709 284.358 44.4587 283.959 44.5489H283.964V44.551ZM234.02 16.6213C231.211 16.6213 229.838 20.2225 229.838 31.1722L229.827 31.1825C229.827 42.1021 231.202 45.7334 234.009 45.7334C237.065 45.7334 238.262 42.1177 238.262 31.168C238.262 20.2183 237.07 16.6172 234.015 16.6172L234.02 16.6224V16.6213ZM248.999 31.1867C248.999 40.6158 243.076 47.7217 234.009 47.7217C224.943 47.7217 219.08 40.6107 219.08 31.1867C219.08 21.7627 225.186 14.6216 234.009 14.6216C242.833 14.6216 248.999 21.7575 248.999 31.1867ZM201.105 16.6369C198.298 16.6369 196.923 20.238 196.923 31.1877C196.923 42.1374 198.298 45.7386 201.105 45.7386C204.156 45.7386 205.347 42.1374 205.347 31.1877C205.347 20.238 204.156 16.6369 201.105 16.6369ZM216.095 31.1867C216.095 40.6158 210.171 47.7217 201.105 47.7217C192.039 47.7217 186.176 40.6107 186.176 31.1867C186.176 21.7627 192.282 14.6216 201.105 14.6216C209.929 14.6216 216.095 21.7575 216.095 31.1867ZM181.474 43.1165C175.888 46.2582 170.151 47.7227 164.868 47.7227L164.878 47.7123C151.02 47.7123 143.939 39.4749 143.939 25.0454C143.939 11.621 153.757 2.74776 166.762 2.74776C170.545 2.72806 174.298 3.38875 177.843 4.70184C178.086 4.77756 178.297 4.92899 178.444 5.14161C178.591 5.35424 178.656 5.60628 178.635 5.85832V13.5906C178.635 14.1663 178.237 14.2928 177.873 13.8935C171.524 7.06043 169.116 4.89372 165.51 4.89372C159.252 4.89372 155.924 11.1159 155.924 25.0548C155.924 38.9937 159.363 45.6151 165.813 45.6151C168.131 45.6151 169.505 45.0945 170.818 44.0593V33.5339C170.818 29.105 169.611 27.5741 168.939 26.7205C168.681 26.3917 168.5 26.1646 168.5 25.9073C168.5 25.6045 168.671 25.3566 169.171 25.3566H182.601C183.09 25.3566 183.272 25.6045 183.272 25.9073C183.272 26.1397 183.146 26.3565 182.964 26.6697C182.469 27.5129 181.566 29.0687 181.566 33.5328V42.9267C181.566 42.962 181.566 42.9973 181.545 43.0325C181.529 43.0626 181.504 43.0927 181.474 43.1082V43.1134V43.1165ZM128.788 36.9898C128.788 44.05 124.201 47.702 116.308 47.702C111.646 47.702 108.763 47.1512 106.883 46.6057C106.444 46.4843 106.288 46.2115 106.258 45.7821L105.596 37.7521C105.535 37.1153 106.005 36.9286 106.378 37.4493C110.671 43.045 113.555 45.7272 116.849 45.7272C119.545 45.7272 121.394 44.0552 121.394 41.4954C121.394 38.9356 120.237 37.6318 116.974 36.3239L112.146 34.375C107.414 32.4604 105.408 28.713 105.408 24.7332C105.408 18.6781 110.611 14.6932 117.409 14.6932C120.419 14.6932 123.772 15.1174 125.681 15.8196C125.848 15.9005 125.984 16.0322 126.081 16.1878C126.176 16.3444 126.222 16.5207 126.217 16.7033V23.0519C126.217 23.724 125.778 23.8848 125.373 23.3901C121.641 18.7538 119.419 16.7136 116.5 16.7136C114.525 16.7136 112.616 17.7996 112.616 20.1727C112.616 22.5458 113.802 23.945 116.722 25.1014L121.202 26.8948C126.217 28.9048 128.788 32.5869 128.788 36.996V36.9908V36.9898ZM107.772 6.71712C107.772 11.5256 105.141 15.4244 99.9692 16.9086H99.9744C99.378 17.0953 99.0959 16.4595 99.6612 16.1203C101.5 15.024 103.581 13.4133 104.045 11.4944C104.076 11.3078 103.944 11.1864 103.792 11.2466C103.055 11.5038 102.282 11.6355 101.5 11.6407C98.2122 11.6407 95.5155 8.87345 95.5155 5.64569C95.5311 4.07538 96.1876 2.5704 97.3337 1.46371C98.4892 0.364283 100.04 -0.256999 101.661 -0.251813C105.015 -0.251813 107.772 2.42519 107.772 6.71815V6.71712ZM84.7722 16.7074C82.5454 16.7074 81.0756 19.6364 80.9792 27.0503H88.3786C88.3381 19.8387 87.0655 16.7074 84.7722 16.7074ZM98.1012 38.0706C96.9095 43.3634 92.7379 47.7123 85.3136 47.7123V47.7227C76.96 47.7227 70.3386 42.2536 70.3386 31.8692C70.3386 21.4847 77.2328 14.7077 85.7576 14.7077C93.5002 14.7077 98.1967 20.6923 98.1967 27.1219C98.207 27.6021 98.1863 28.0761 98.1365 28.5512C98.1261 28.6424 98.1012 28.7275 98.0556 28.8032C98.01 28.8841 97.955 28.9494 97.8834 29.0106C97.8129 29.0667 97.732 29.1113 97.6407 29.1372C97.5495 29.1621 97.4592 29.1724 97.3679 29.1621H81.0041C81.3526 37.1568 84.544 40.2881 89.842 40.2881C92.5896 40.3036 95.251 39.3484 97.3316 37.6111C97.872 37.1568 98.2506 37.3684 98.094 38.0706H98.0992H98.1012ZM53.9643 18.0402H50.2979V18.0298C49.7326 18.0298 49.6009 17.393 50.1112 17.0849L53.9643 14.7419V12.2464C53.9643 5.70689 57.8186 -0.256999 65.8734 -0.256999C67.6107 -0.281891 69.3429 -0.0443732 71.0096 0.434812C71.3333 0.49497 71.5199 0.737674 71.5199 1.13699V8.13704C71.5199 8.65771 71.1113 8.83922 70.7068 8.38493L70.6155 8.28847C66.949 4.40002 65.1713 2.51024 62.681 2.51024C60.7009 2.51024 59.1711 3.72791 59.1711 6.04086C59.1711 7.77298 60.0247 9.84427 61.7164 12.1572L62.626 13.3946C63.6818 14.8446 64.5251 15.3393 65.9336 15.3393H69.9434C70.0399 15.329 70.1405 15.3393 70.2317 15.3694C70.323 15.3995 70.4091 15.4503 70.4796 15.5208C70.5502 15.5862 70.601 15.6723 70.6363 15.7584C70.6663 15.8496 70.6767 15.9451 70.6663 16.0415V17.3795C70.6767 17.4708 70.6663 17.5662 70.6259 17.6523C70.5906 17.7384 70.5398 17.8193 70.4693 17.8794C70.3987 17.9448 70.3178 17.9904 70.2266 18.0205C70.1353 18.0506 70.0399 18.0558 69.9434 18.0454H64.5541V38.9491C64.5541 43.3281 66.0083 44.8331 66.8422 45.696C67.1751 46.0394 67.4075 46.2769 67.4075 46.5548C67.4075 46.8525 67.2301 47.1004 66.7208 47.1004H52.2716C51.7717 47.1004 51.5798 46.8577 51.5798 46.5548C51.5798 46.3028 51.7665 46.0694 52.0289 45.7417C52.7207 44.8881 53.9581 43.3582 53.9581 38.9491V18.0454L53.9633 18.0402H53.9643ZM35.3384 8.98547C34.6662 8.00532 34.3126 6.85403 34.3126 5.67785C34.3229 4.10234 34.9743 2.59218 36.1256 1.48134C37.2779 0.369469 38.8327 -0.256999 40.459 -0.256999C41.6715 -0.256999 42.8528 0.0966857 43.8631 0.753232C44.8681 1.40978 45.6512 2.33911 46.1159 3.43024C46.5753 4.51618 46.6967 5.71311 46.454 6.86959C46.2165 8.02088 45.6253 9.08193 44.7675 9.90961C43.9087 10.7383 42.8134 11.3036 41.6258 11.5308C40.4393 11.7579 39.2071 11.6365 38.0859 11.1823C36.9699 10.728 36.0105 9.96458 35.3435 8.98547H35.3384ZM47.4746 47.0859H33.4994C32.9995 47.0859 32.8076 46.8484 32.8076 46.5455C32.8076 46.2935 32.9943 46.0611 33.2567 45.7323C33.9485 44.8787 35.1859 43.3489 35.1859 38.9397V23.5456C35.1859 20.2878 34.0491 19.1925 33.348 18.5152C33.0347 18.2124 32.8076 17.9946 32.8076 17.7021C32.8076 17.338 33.0555 17.1212 33.5295 17.03L45.5651 14.4743C45.59 14.4691 45.6211 14.4691 45.6512 14.4743C45.6761 14.4795 45.7072 14.494 45.7269 14.5096C45.7466 14.5303 45.7674 14.55 45.7777 14.5749C45.7881 14.5998 45.7933 14.6299 45.7881 14.6558V38.9283C45.7881 43.3478 47.0255 44.8725 47.7173 45.7261C47.9849 46.0549 48.1664 46.2821 48.1664 46.5341C48.1664 46.8318 47.9849 47.0797 47.4746 47.0797V47.0848V47.0859ZM27.6714 47.0911H0.691811C0.191882 47.0911 0 46.8484 0 46.5403C0 46.2883 0.186696 46.0549 0.449106 45.7272C1.14092 44.8735 2.37829 43.3437 2.37829 38.9345V11.6117C2.37829 7.19215 1.14092 5.66747 0.449106 4.81386C0.18151 4.48507 0 4.25792 0 4.00588C0 3.70821 0.18151 3.46032 0.691811 3.46032H15.5507C16.0506 3.46032 16.2425 3.70302 16.2425 4.00588C16.2425 4.25792 16.0558 4.49025 15.7934 4.81905C15.1016 5.67266 13.8642 7.20253 13.8642 11.6117V44.9596H16.117C19.7233 44.9596 20.8186 43.9546 23.9551 40.8534L29.9958 34.8584C30.4044 34.4186 30.8743 34.6457 30.7788 35.1612L28.6775 46.2675C28.6671 46.3837 28.637 46.4999 28.582 46.6057C28.526 46.7115 28.4503 46.8027 28.3549 46.8836C28.2636 46.9593 28.1526 47.0205 28.0365 47.0548C27.9203 47.09 27.799 47.1004 27.6776 47.09H27.6724L27.6714 47.0911Z" fill="white"/>
</g>
<defs>
<clipPath id="clip0_0_74">
<rect width="300" height="47.8125" fill="white"/>
</clipPath>
</defs>
</svg>
