<svg width="48" height="48" viewBox="0 0 48 48" fill="none" xmlns="http://www.w3.org/2000/svg">
<rect width="48" height="48" rx="24" fill="#FF0302"/>
<g clip-path="url(#clip0_388_5444)">
<path d="M38.4025 16.7316C38.2329 16.0934 37.8986 15.5109 37.4332 15.0425C36.9677 14.574 36.3874 14.236 35.7502 14.0623C33.4048 13.4316 24.0298 13.4316 24.0298 13.4316C24.0298 13.4316 14.6548 13.4316 12.3093 14.0623C11.6722 14.236 11.0919 14.574 10.6264 15.0425C10.1609 15.5109 9.82667 16.0934 9.65706 16.7316C9.02979 19.0873 9.02979 23.9998 9.02979 23.9998C9.02979 23.9998 9.02979 28.9123 9.65706 31.268C9.82667 31.9062 10.1609 32.4887 10.6264 32.9572C11.0919 33.4256 11.6722 33.7636 12.3093 33.9373C14.6548 34.568 24.0298 34.568 24.0298 34.568C24.0298 34.568 33.4048 34.568 35.7502 33.9373C36.3874 33.7636 36.9677 33.4256 37.4332 32.9572C37.8986 32.4887 38.2329 31.9062 38.4025 31.268C39.0298 28.9123 39.0298 23.9998 39.0298 23.9998C39.0298 23.9998 39.0298 19.0873 38.4025 16.7316Z" fill="white"/>
<path d="M20.9614 28.4609V19.5393L28.8023 24.0001L20.9614 28.4609Z" fill="#FF0302"/>
</g>
<defs>
<clipPath id="clip0_388_5444">
<rect width="30" height="30" fill="white" transform="translate(9 9)"/>
</clipPath>
</defs>
</svg>
